<!DOCTYPE svg PUBLIC "-//W3C//DTD SVG 1.1//EN" "http://www.w3.org/Graphics/SVG/1.1/DTD/svg11.dtd">
<!-- Uploaded to: SVG Repo, www.svgrepo.com, Transformed by: SVG Repo Mixer Tools -->
<svg width="64px" height="64px" viewBox="0 0 36 36" xmlns="http://www.w3.org/2000/svg" xmlns:xlink="http://www.w3.org/1999/xlink" aria-hidden="true" role="img" class="iconify iconify--twemoji" preserveAspectRatio="xMidYMid meet" fill="#000000">
<g id="SVGRepo_bgCarrier" stroke-width="0"/>
<g id="SVGRepo_tracerCarrier" stroke-linecap="round" stroke-linejoin="round"/>
<g id="SVGRepo_iconCarrier">
<path fill="#BF6952" d="M29 34a2 2 0 0 1-2 2H9a2 2 0 0 1-2-2V2a2 2 0 0 1 2-2h18a2 2 0 0 1 2 2v32z"/>
<circle fill="#FFAC33" cx="11" cy="18" r="1.5"/>
<path fill="#AC5640" d="M25 3a1 1 0 0 0-1 1v9H11a1 1 0 0 0 0 2h14a1 1 0 0 0 1-1V4a1 1 0 0 0-1-1zm0 25a1 1 0 0 1 1 1v3a1 1 0 0 1-1 1H11a1 1 0 0 1 0-2h13v-2a1 1 0 0 1 1-1z"/>
<path fill="#854836" d="M11 33a1 1 0 0 1-1-1v-3a1 1 0 0 1 1-1h14a1 1 0 0 1 0 2H12v2a1 1 0 0 1-1 1z"/>
<path fill="#AC5640" d="M25 21a1 1 0 0 1 1 1v3a1 1 0 0 1-1 1H11a1 1 0 0 1 0-2h13v-2a1 1 0 0 1 1-1z"/>
<path fill="#854836" d="M11 26a1 1 0 0 1-1-1v-3a1 1 0 0 1 1-1h14a1 1 0 0 1 0 2H12v2a1 1 0 0 1-1 1zm0-11a1 1 0 0 1-1-1V4a1 1 0 0 1 1-1h14a1 1 0 0 1 0 2H12v9a1 1 0 0 1-1 1z"/>
</g>
</svg>